<svg width="161" height="84" viewBox="0 0 161 84" fill="none" xmlns="http://www.w3.org/2000/svg">
<path d="M53.002 34.5L63.2904 16.729C63.6371 16.1302 64.4724 16.0559 64.9192 16.5841L73.785 27.0617C74.3029 27.6738 75.2944 27.458 75.5111 26.686L82.1006 3.21118C82.3687 2.2559 83.7143 2.23216 84.016 3.1774L89.9633 21.8123C90.2 22.5539 91.1559 22.7526 91.6686 22.1667L108.002 3.5M108.002 3.5L103.502 4.5L108.002 8.5V3.5Z" stroke="white" stroke-width="4"/>
<path d="M27.6838 45.7841L21.036 46.1932C20.9224 45.625 20.6781 45.1136 20.3031 44.6591C19.9281 44.1932 19.4338 43.8239 18.8201 43.5511C18.2179 43.267 17.4963 43.125 16.6554 43.125C15.5304 43.125 14.5815 43.3636 13.8088 43.8409C13.036 44.3068 12.6497 44.9318 12.6497 45.7159C12.6497 46.3409 12.8997 46.8693 13.3997 47.3011C13.8997 47.733 14.7576 48.0795 15.9735 48.3409L20.7122 49.2955C23.2576 49.8182 25.1554 50.6591 26.4054 51.8182C27.6554 52.9773 28.2804 54.5 28.2804 56.3864C28.2804 58.1023 27.7747 59.608 26.7633 60.9034C25.7633 62.1989 24.3883 63.2102 22.6383 63.9375C20.8997 64.6534 18.894 65.0114 16.6213 65.0114C13.1554 65.0114 10.394 64.2898 8.33718 62.8466C6.29173 61.392 5.09286 59.4148 4.74059 56.9148L11.8826 56.5398C12.0985 57.5966 12.6213 58.4034 13.4508 58.9602C14.2804 59.5057 15.3429 59.7784 16.6383 59.7784C17.911 59.7784 18.9338 59.5341 19.7065 59.0455C20.4906 58.5455 20.8883 57.9034 20.8997 57.1193C20.8883 56.4602 20.6099 55.9205 20.0645 55.5C19.519 55.0682 18.6781 54.7386 17.5417 54.5114L13.0076 53.608C10.4508 53.0966 8.54741 52.2102 7.29741 50.9489C6.05877 49.6875 5.43945 48.0795 5.43945 46.125C5.43945 44.4432 5.894 42.9943 6.80309 41.7784C7.72354 40.5625 9.01332 39.625 10.6724 38.9659C12.3429 38.3068 14.2974 37.9773 16.536 37.9773C19.8429 37.9773 22.4451 38.6761 24.3429 40.0739C26.252 41.4716 27.3656 43.375 27.6838 45.7841ZM36.2742 49.3636V64.5H29.0128V29.5909H36.0696V42.9375H36.3764C36.9674 41.392 37.9219 40.1818 39.2401 39.3068C40.5583 38.4205 42.2117 37.9773 44.2003 37.9773C46.0185 37.9773 47.6037 38.375 48.956 39.1705C50.3196 39.9545 51.3764 41.0852 52.1264 42.5625C52.8878 44.0284 53.2628 45.7841 53.2514 47.8295V64.5H45.9901V49.125C46.0014 47.5114 45.5924 46.2557 44.7628 45.358C43.9446 44.4602 42.7969 44.0114 41.3196 44.0114C40.331 44.0114 39.456 44.2216 38.6946 44.642C37.9446 45.0625 37.3537 45.6761 36.9219 46.483C36.5014 47.2784 36.2855 48.2386 36.2742 49.3636ZM62.5918 64.9943C60.9214 64.9943 59.4327 64.7045 58.1259 64.125C56.8191 63.5341 55.785 62.6648 55.0237 61.517C54.2737 60.358 53.8987 58.9148 53.8987 57.1875C53.8987 55.733 54.1657 54.5114 54.6998 53.5227C55.2339 52.5341 55.9612 51.7386 56.8816 51.1364C57.8021 50.5341 58.8475 50.0795 60.018 49.7727C61.1998 49.4659 62.4384 49.25 63.7339 49.125C65.2566 48.9659 66.4839 48.8182 67.4157 48.6818C68.3475 48.5341 69.0237 48.3182 69.4441 48.0341C69.8646 47.75 70.0748 47.3295 70.0748 46.7727V46.6705C70.0748 45.5909 69.7339 44.7557 69.0521 44.1648C68.3816 43.5739 67.4271 43.2784 66.1884 43.2784C64.8816 43.2784 63.8418 43.5682 63.0691 44.1477C62.2964 44.7159 61.785 45.4318 61.535 46.2955L54.8191 45.75C55.16 44.1591 55.8305 42.7841 56.8305 41.625C57.8305 40.4545 59.1202 39.5568 60.6998 38.9318C62.2907 38.2955 64.1316 37.9773 66.2225 37.9773C67.6771 37.9773 69.0691 38.1477 70.3987 38.4886C71.7396 38.8295 72.9271 39.358 73.9612 40.0739C75.0066 40.7898 75.8305 41.7102 76.4327 42.8352C77.035 43.9489 77.3362 45.2841 77.3362 46.8409V64.5H70.4498V60.8693H70.2452C69.8248 61.6875 69.2623 62.4091 68.5577 63.0341C67.8532 63.6477 67.0066 64.1307 66.018 64.483C65.0293 64.8239 63.8873 64.9943 62.5918 64.9943ZM64.6714 59.983C65.7396 59.983 66.6827 59.7727 67.5009 59.3523C68.3191 58.9205 68.9612 58.3409 69.4271 57.6136C69.893 56.8864 70.1259 56.0625 70.1259 55.142V52.3636C69.8987 52.5114 69.5862 52.6477 69.1884 52.7727C68.8021 52.8864 68.3646 52.9943 67.8759 53.0966C67.3873 53.1875 66.8987 53.2727 66.41 53.3523C65.9214 53.4205 65.4782 53.483 65.0805 53.5398C64.2282 53.6648 63.4839 53.8636 62.8475 54.1364C62.2112 54.4091 61.7168 54.7784 61.3646 55.2443C61.0123 55.6989 60.8362 56.267 60.8362 56.9489C60.8362 57.9375 61.1941 58.6932 61.91 59.2159C62.6373 59.7273 63.5577 59.983 64.6714 59.983ZM86.391 49.3636V64.5H79.1297V38.3182H86.0501V42.9375H86.357C86.9365 41.4148 87.9081 40.2102 89.2717 39.3239C90.6354 38.4261 92.2888 37.9773 94.232 37.9773C96.0501 37.9773 97.6354 38.375 98.9876 39.1705C100.34 39.9659 101.391 41.1023 102.141 42.5795C102.891 44.0455 103.266 45.7955 103.266 47.8295V64.5H96.0047V49.125C96.016 47.5227 95.607 46.2727 94.7774 45.375C93.9479 44.4659 92.8058 44.0114 91.3513 44.0114C90.374 44.0114 89.5104 44.2216 88.7604 44.642C88.0217 45.0625 87.4422 45.6761 87.0217 46.483C86.6126 47.2784 86.4024 48.2386 86.391 49.3636ZM116.945 74.8636C114.592 74.8636 112.575 74.5398 110.893 73.892C109.223 73.2557 107.893 72.3864 106.905 71.2841C105.916 70.1818 105.274 68.9432 104.979 67.5682L111.695 66.6648C111.899 67.1875 112.223 67.6761 112.666 68.1307C113.109 68.5852 113.695 68.9489 114.422 69.2216C115.16 69.5057 116.058 69.6477 117.115 69.6477C118.695 69.6477 119.996 69.2614 121.018 68.4886C122.052 67.7273 122.57 66.4489 122.57 64.6534V59.8636H122.263C121.945 60.5909 121.467 61.2784 120.831 61.9261C120.195 62.5739 119.376 63.1023 118.376 63.5114C117.376 63.9205 116.183 64.125 114.797 64.125C112.831 64.125 111.041 63.6705 109.427 62.7614C107.825 61.8409 106.547 60.4375 105.592 58.5511C104.649 56.6534 104.177 54.2557 104.177 51.358C104.177 48.392 104.66 45.9148 105.626 43.9261C106.592 41.9375 107.876 40.4489 109.479 39.4602C111.092 38.4716 112.859 37.9773 114.78 37.9773C116.246 37.9773 117.473 38.2273 118.462 38.7273C119.45 39.2159 120.246 39.8295 120.848 40.5682C121.462 41.2955 121.933 42.0114 122.263 42.7159H122.535V38.3182H129.746V64.7557C129.746 66.983 129.2 68.8466 128.109 70.3466C127.018 71.8466 125.507 72.9716 123.575 73.7216C121.655 74.483 119.445 74.8636 116.945 74.8636ZM117.098 58.6705C118.268 58.6705 119.257 58.3807 120.064 57.8011C120.882 57.2102 121.507 56.3693 121.939 55.2784C122.382 54.1761 122.604 52.858 122.604 51.3239C122.604 49.7898 122.388 48.4602 121.956 47.3352C121.524 46.1989 120.899 45.3182 120.081 44.6932C119.263 44.0682 118.268 43.7557 117.098 43.7557C115.905 43.7557 114.899 44.0795 114.081 44.7273C113.263 45.3636 112.643 46.25 112.223 47.3864C111.802 48.5227 111.592 49.8352 111.592 51.3239C111.592 52.8352 111.802 54.142 112.223 55.2443C112.655 56.3352 113.274 57.1818 114.081 57.7841C114.899 58.375 115.905 58.6705 117.098 58.6705ZM139.15 64.9943C137.48 64.9943 135.991 64.7045 134.684 64.125C133.377 63.5341 132.343 62.6648 131.582 61.517C130.832 60.358 130.457 58.9148 130.457 57.1875C130.457 55.733 130.724 54.5114 131.258 53.5227C131.792 52.5341 132.519 51.7386 133.44 51.1364C134.36 50.5341 135.406 50.0795 136.576 49.7727C137.758 49.4659 138.997 49.25 140.292 49.125C141.815 48.9659 143.042 48.8182 143.974 48.6818C144.906 48.5341 145.582 48.3182 146.002 48.0341C146.423 47.75 146.633 47.3295 146.633 46.7727V46.6705C146.633 45.5909 146.292 44.7557 145.61 44.1648C144.94 43.5739 143.985 43.2784 142.747 43.2784C141.44 43.2784 140.4 43.5682 139.627 44.1477C138.855 44.7159 138.343 45.4318 138.093 46.2955L131.377 45.75C131.718 44.1591 132.389 42.7841 133.389 41.625C134.389 40.4545 135.678 39.5568 137.258 38.9318C138.849 38.2955 140.69 37.9773 142.781 37.9773C144.235 37.9773 145.627 38.1477 146.957 38.4886C148.298 38.8295 149.485 39.358 150.519 40.0739C151.565 40.7898 152.389 41.7102 152.991 42.8352C153.593 43.9489 153.894 45.2841 153.894 46.8409V64.5H147.008V60.8693H146.803C146.383 61.6875 145.82 62.4091 145.116 63.0341C144.411 63.6477 143.565 64.1307 142.576 64.483C141.587 64.8239 140.445 64.9943 139.15 64.9943ZM141.23 59.983C142.298 59.983 143.241 59.7727 144.059 59.3523C144.877 58.9205 145.519 58.3409 145.985 57.6136C146.451 56.8864 146.684 56.0625 146.684 55.142V52.3636C146.457 52.5114 146.144 52.6477 145.747 52.7727C145.36 52.8864 144.923 52.9943 144.434 53.0966C143.945 53.1875 143.457 53.2727 142.968 53.3523C142.48 53.4205 142.036 53.483 141.639 53.5398C140.786 53.6648 140.042 53.8636 139.406 54.1364C138.769 54.4091 138.275 54.7784 137.923 55.2443C137.57 55.6989 137.394 56.267 137.394 56.9489C137.394 57.9375 137.752 58.6932 138.468 59.2159C139.195 59.7273 140.116 59.983 141.23 59.983Z" fill="white"/>
<path d="M0 82.5H161.003" stroke="white" stroke-width="3"/>
</svg>
