<svg width="161" height="85" viewBox="0 0 161 85" fill="none" xmlns="http://www.w3.org/2000/svg">
<path d="M53 35L63.2885 17.229C63.6351 16.6302 64.4704 16.5559 64.9173 17.0841L73.783 27.5617C74.3009 28.1738 75.2925 27.958 75.5092 27.186L82.0986 3.71118C82.3668 2.7559 83.7124 2.73216 84.0141 3.6774L89.9614 22.3123C90.198 23.0539 91.154 23.2526 91.6666 22.6667L108 4M108 4L103.5 5L108 9V4Z" stroke="#343A40" stroke-width="4"/>
<path d="M27.6818 46.2841L21.0341 46.6932C20.9205 46.125 20.6761 45.6136 20.3011 45.1591C19.9261 44.6932 19.4318 44.3239 18.8182 44.0511C18.2159 43.767 17.4943 43.625 16.6534 43.625C15.5284 43.625 14.5795 43.8636 13.8068 44.3409C13.0341 44.8068 12.6477 45.4318 12.6477 46.2159C12.6477 46.8409 12.8977 47.3693 13.3977 47.8011C13.8977 48.233 14.7557 48.5795 15.9716 48.8409L20.7102 49.7955C23.2557 50.3182 25.1534 51.1591 26.4034 52.3182C27.6534 53.4773 28.2784 55 28.2784 56.8864C28.2784 58.6023 27.7727 60.108 26.7614 61.4034C25.7614 62.6989 24.3864 63.7102 22.6364 64.4375C20.8977 65.1534 18.892 65.5114 16.6193 65.5114C13.1534 65.5114 10.392 64.7898 8.33523 63.3466C6.28977 61.892 5.09091 59.9148 4.73864 57.4148L11.8807 57.0398C12.0966 58.0966 12.6193 58.9034 13.4489 59.4602C14.2784 60.0057 15.3409 60.2784 16.6364 60.2784C17.9091 60.2784 18.9318 60.0341 19.7045 59.5455C20.4886 59.0455 20.8864 58.4034 20.8977 57.6193C20.8864 56.9602 20.608 56.4205 20.0625 56C19.517 55.5682 18.6761 55.2386 17.5398 55.0114L13.0057 54.108C10.4489 53.5966 8.54545 52.7102 7.29545 51.4489C6.05682 50.1875 5.4375 48.5795 5.4375 46.625C5.4375 44.9432 5.89205 43.4943 6.80114 42.2784C7.72159 41.0625 9.01136 40.125 10.6705 39.4659C12.3409 38.8068 14.2955 38.4773 16.5341 38.4773C19.8409 38.4773 22.4432 39.1761 24.3409 40.5739C26.25 41.9716 27.3636 43.875 27.6818 46.2841ZM36.2722 49.8636V65H29.0109V30.0909H36.0677V43.4375H36.3745C36.9654 41.892 37.9199 40.6818 39.2381 39.8068C40.5563 38.9205 42.2097 38.4773 44.1984 38.4773C46.0165 38.4773 47.6018 38.875 48.954 39.6705C50.3177 40.4545 51.3745 41.5852 52.1245 43.0625C52.8859 44.5284 53.2609 46.2841 53.2495 48.3295V65H45.9881V49.625C45.9995 48.0114 45.5904 46.7557 44.7609 45.858C43.9427 44.9602 42.7949 44.5114 41.3177 44.5114C40.329 44.5114 39.454 44.7216 38.6927 45.142C37.9427 45.5625 37.3518 46.1761 36.9199 46.983C36.4995 47.7784 36.2836 48.7386 36.2722 49.8636ZM62.5899 65.4943C60.9194 65.4943 59.4308 65.2045 58.124 64.625C56.8172 64.0341 55.7831 63.1648 55.0217 62.017C54.2717 60.858 53.8967 59.4148 53.8967 57.6875C53.8967 56.233 54.1637 55.0114 54.6978 54.0227C55.2319 53.0341 55.9592 52.2386 56.8797 51.6364C57.8001 51.0341 58.8456 50.5795 60.016 50.2727C61.1978 49.9659 62.4365 49.75 63.7319 49.625C65.2547 49.4659 66.4819 49.3182 67.4137 49.1818C68.3456 49.0341 69.0217 48.8182 69.4422 48.5341C69.8626 48.25 70.0728 47.8295 70.0728 47.2727V47.1705C70.0728 46.0909 69.7319 45.2557 69.0501 44.6648C68.3797 44.0739 67.4251 43.7784 66.1865 43.7784C64.8797 43.7784 63.8399 44.0682 63.0672 44.6477C62.2944 45.2159 61.7831 45.9318 61.5331 46.7955L54.8172 46.25C55.1581 44.6591 55.8285 43.2841 56.8285 42.125C57.8285 40.9545 59.1183 40.0568 60.6978 39.4318C62.2887 38.7955 64.1297 38.4773 66.2206 38.4773C67.6751 38.4773 69.0672 38.6477 70.3967 38.9886C71.7376 39.3295 72.9251 39.858 73.9592 40.5739C75.0047 41.2898 75.8285 42.2102 76.4308 43.3352C77.0331 44.4489 77.3342 45.7841 77.3342 47.3409V65H70.4478V61.3693H70.2433C69.8228 62.1875 69.2603 62.9091 68.5558 63.5341C67.8512 64.1477 67.0047 64.6307 66.016 64.983C65.0274 65.3239 63.8853 65.4943 62.5899 65.4943ZM64.6694 60.483C65.7376 60.483 66.6808 60.2727 67.499 59.8523C68.3172 59.4205 68.9592 58.8409 69.4251 58.1136C69.891 57.3864 70.124 56.5625 70.124 55.642V52.8636C69.8967 53.0114 69.5842 53.1477 69.1865 53.2727C68.8001 53.3864 68.3626 53.4943 67.874 53.5966C67.3853 53.6875 66.8967 53.7727 66.4081 53.8523C65.9194 53.9205 65.4762 53.983 65.0785 54.0398C64.2263 54.1648 63.4819 54.3636 62.8456 54.6364C62.2092 54.9091 61.7149 55.2784 61.3626 55.7443C61.0103 56.1989 60.8342 56.767 60.8342 57.4489C60.8342 58.4375 61.1922 59.1932 61.9081 59.7159C62.6353 60.2273 63.5558 60.483 64.6694 60.483ZM86.3891 49.8636V65H79.1277V38.8182H86.0482V43.4375H86.355C86.9345 41.9148 87.9061 40.7102 89.2698 39.8239C90.6334 38.9261 92.2868 38.4773 94.23 38.4773C96.0482 38.4773 97.6334 38.875 98.9857 39.6705C100.338 40.4659 101.389 41.6023 102.139 43.0795C102.889 44.5455 103.264 46.2955 103.264 48.3295V65H96.0027V49.625C96.0141 48.0227 95.605 46.7727 94.7755 45.875C93.9459 44.9659 92.8039 44.5114 91.3493 44.5114C90.372 44.5114 89.5084 44.7216 88.7584 45.142C88.0198 45.5625 87.4402 46.1761 87.0198 46.983C86.6107 47.7784 86.4005 48.7386 86.3891 49.8636ZM116.943 75.3636C114.59 75.3636 112.573 75.0398 110.891 74.392C109.221 73.7557 107.891 72.8864 106.903 71.7841C105.914 70.6818 105.272 69.4432 104.977 68.0682L111.693 67.1648C111.897 67.6875 112.221 68.1761 112.664 68.6307C113.107 69.0852 113.693 69.4489 114.42 69.7216C115.158 70.0057 116.056 70.1477 117.113 70.1477C118.693 70.1477 119.994 69.7614 121.016 68.9886C122.051 68.2273 122.568 66.9489 122.568 65.1534V60.3636H122.261C121.943 61.0909 121.465 61.7784 120.829 62.4261C120.193 63.0739 119.374 63.6023 118.374 64.0114C117.374 64.4205 116.181 64.625 114.795 64.625C112.829 64.625 111.039 64.1705 109.426 63.2614C107.823 62.3409 106.545 60.9375 105.59 59.0511C104.647 57.1534 104.176 54.7557 104.176 51.858C104.176 48.892 104.658 46.4148 105.624 44.4261C106.59 42.4375 107.874 40.9489 109.477 39.9602C111.09 38.9716 112.857 38.4773 114.778 38.4773C116.244 38.4773 117.471 38.7273 118.46 39.2273C119.448 39.7159 120.244 40.3295 120.846 41.0682C121.46 41.7955 121.931 42.5114 122.261 43.2159H122.533V38.8182H129.744V65.2557C129.744 67.483 129.198 69.3466 128.107 70.8466C127.016 72.3466 125.505 73.4716 123.573 74.2216C121.653 74.983 119.443 75.3636 116.943 75.3636ZM117.096 59.1705C118.266 59.1705 119.255 58.8807 120.062 58.3011C120.88 57.7102 121.505 56.8693 121.937 55.7784C122.38 54.6761 122.602 53.358 122.602 51.8239C122.602 50.2898 122.386 48.9602 121.954 47.8352C121.522 46.6989 120.897 45.8182 120.079 45.1932C119.261 44.5682 118.266 44.2557 117.096 44.2557C115.903 44.2557 114.897 44.5795 114.079 45.2273C113.261 45.8636 112.641 46.75 112.221 47.8864C111.801 49.0227 111.59 50.3352 111.59 51.8239C111.59 53.3352 111.801 54.642 112.221 55.7443C112.653 56.8352 113.272 57.6818 114.079 58.2841C114.897 58.875 115.903 59.1705 117.096 59.1705ZM139.148 65.4943C137.478 65.4943 135.989 65.2045 134.682 64.625C133.375 64.0341 132.341 63.1648 131.58 62.017C130.83 60.858 130.455 59.4148 130.455 57.6875C130.455 56.233 130.722 55.0114 131.256 54.0227C131.79 53.0341 132.517 52.2386 133.438 51.6364C134.358 51.0341 135.404 50.5795 136.574 50.2727C137.756 49.9659 138.995 49.75 140.29 49.625C141.813 49.4659 143.04 49.3182 143.972 49.1818C144.904 49.0341 145.58 48.8182 146 48.5341C146.421 48.25 146.631 47.8295 146.631 47.2727V47.1705C146.631 46.0909 146.29 45.2557 145.608 44.6648C144.938 44.0739 143.983 43.7784 142.745 43.7784C141.438 43.7784 140.398 44.0682 139.625 44.6477C138.853 45.2159 138.341 45.9318 138.091 46.7955L131.375 46.25C131.716 44.6591 132.387 43.2841 133.387 42.125C134.387 40.9545 135.676 40.0568 137.256 39.4318C138.847 38.7955 140.688 38.4773 142.779 38.4773C144.233 38.4773 145.625 38.6477 146.955 38.9886C148.296 39.3295 149.483 39.858 150.517 40.5739C151.563 41.2898 152.387 42.2102 152.989 43.3352C153.591 44.4489 153.892 45.7841 153.892 47.3409V65H147.006V61.3693H146.801C146.381 62.1875 145.818 62.9091 145.114 63.5341C144.409 64.1477 143.563 64.6307 142.574 64.983C141.586 65.3239 140.443 65.4943 139.148 65.4943ZM141.228 60.483C142.296 60.483 143.239 60.2727 144.057 59.8523C144.875 59.4205 145.517 58.8409 145.983 58.1136C146.449 57.3864 146.682 56.5625 146.682 55.642V52.8636C146.455 53.0114 146.142 53.1477 145.745 53.2727C145.358 53.3864 144.921 53.4943 144.432 53.5966C143.943 53.6875 143.455 53.7727 142.966 53.8523C142.478 53.9205 142.034 53.983 141.637 54.0398C140.784 54.1648 140.04 54.3636 139.404 54.6364C138.767 54.9091 138.273 55.2784 137.921 55.7443C137.568 56.1989 137.392 56.767 137.392 57.4489C137.392 58.4375 137.75 59.1932 138.466 59.7159C139.193 60.2273 140.114 60.483 141.228 60.483Z" fill="#343A40"/>
<path d="M-0.00195312 83H161.001" stroke="#343A40" stroke-width="3"/>
</svg>
