<svg width="260" height="192" viewBox="0 0 260 192" fill="none" xmlns="http://www.w3.org/2000/svg">
<rect width="260" height="192" rx="14" fill="#343A40"/>
<path d="M102.002 89.5L112.29 71.729C112.637 71.1302 113.472 71.0559 113.919 71.5841L122.785 82.0617C123.303 82.6738 124.294 82.458 124.511 81.686L131.101 58.2112C131.369 57.2559 132.714 57.2322 133.016 58.1774L138.963 76.8123C139.2 77.5539 140.156 77.7526 140.669 77.1667L157.002 58.5M157.002 58.5L152.502 59.5L157.002 63.5V58.5Z" stroke="white" stroke-width="4"/>
<path d="M76.6838 100.784L70.036 101.193C69.9224 100.625 69.6781 100.114 69.3031 99.6591C68.9281 99.1932 68.4338 98.8239 67.8201 98.5511C67.2179 98.267 66.4963 98.125 65.6554 98.125C64.5304 98.125 63.5815 98.3636 62.8088 98.8409C62.036 99.3068 61.6497 99.9318 61.6497 100.716C61.6497 101.341 61.8997 101.869 62.3997 102.301C62.8997 102.733 63.7576 103.08 64.9735 103.341L69.7122 104.295C72.2576 104.818 74.1554 105.659 75.4054 106.818C76.6554 107.977 77.2804 109.5 77.2804 111.386C77.2804 113.102 76.7747 114.608 75.7633 115.903C74.7633 117.199 73.3883 118.21 71.6383 118.938C69.8997 119.653 67.894 120.011 65.6213 120.011C62.1554 120.011 59.394 119.29 57.3372 117.847C55.2917 116.392 54.0929 114.415 53.7406 111.915L60.8826 111.54C61.0985 112.597 61.6213 113.403 62.4508 113.96C63.2804 114.506 64.3429 114.778 65.6383 114.778C66.911 114.778 67.9338 114.534 68.7065 114.045C69.4906 113.545 69.8883 112.903 69.8997 112.119C69.8883 111.46 69.6099 110.92 69.0645 110.5C68.519 110.068 67.6781 109.739 66.5417 109.511L62.0076 108.608C59.4508 108.097 57.5474 107.21 56.2974 105.949C55.0588 104.687 54.4395 103.08 54.4395 101.125C54.4395 99.4432 54.894 97.9943 55.8031 96.7784C56.7235 95.5625 58.0133 94.625 59.6724 93.9659C61.3429 93.3068 63.2974 92.9773 65.536 92.9773C68.8429 92.9773 71.4451 93.6761 73.3429 95.0739C75.252 96.4716 76.3656 98.375 76.6838 100.784ZM85.2742 104.364V119.5H78.0128V84.5909H85.0696V97.9375H85.3764C85.9674 96.392 86.9219 95.1818 88.2401 94.3068C89.5583 93.4205 91.2117 92.9773 93.2003 92.9773C95.0185 92.9773 96.6037 93.375 97.956 94.1705C99.3196 94.9545 100.376 96.0852 101.126 97.5625C101.888 99.0284 102.263 100.784 102.251 102.83V119.5H94.9901V104.125C95.0014 102.511 94.5924 101.256 93.7628 100.358C92.9446 99.4602 91.7969 99.0114 90.3196 99.0114C89.331 99.0114 88.456 99.2216 87.6946 99.642C86.9446 100.062 86.3537 100.676 85.9219 101.483C85.5014 102.278 85.2855 103.239 85.2742 104.364ZM111.592 119.994C109.921 119.994 108.433 119.705 107.126 119.125C105.819 118.534 104.785 117.665 104.024 116.517C103.274 115.358 102.899 113.915 102.899 112.188C102.899 110.733 103.166 109.511 103.7 108.523C104.234 107.534 104.961 106.739 105.882 106.136C106.802 105.534 107.848 105.08 109.018 104.773C110.2 104.466 111.438 104.25 112.734 104.125C114.257 103.966 115.484 103.818 116.416 103.682C117.348 103.534 118.024 103.318 118.444 103.034C118.865 102.75 119.075 102.33 119.075 101.773V101.67C119.075 100.591 118.734 99.7557 118.052 99.1648C117.382 98.5739 116.427 98.2784 115.188 98.2784C113.882 98.2784 112.842 98.5682 112.069 99.1477C111.296 99.7159 110.785 100.432 110.535 101.295L103.819 100.75C104.16 99.1591 104.83 97.7841 105.83 96.625C106.83 95.4545 108.12 94.5568 109.7 93.9318C111.291 93.2955 113.132 92.9773 115.223 92.9773C116.677 92.9773 118.069 93.1477 119.399 93.4886C120.74 93.8295 121.927 94.358 122.961 95.0739C124.007 95.7898 124.83 96.7102 125.433 97.8352C126.035 98.9489 126.336 100.284 126.336 101.841V119.5H119.45V115.869H119.245C118.825 116.688 118.262 117.409 117.558 118.034C116.853 118.648 116.007 119.131 115.018 119.483C114.029 119.824 112.887 119.994 111.592 119.994ZM113.671 114.983C114.74 114.983 115.683 114.773 116.501 114.352C117.319 113.92 117.961 113.341 118.427 112.614C118.893 111.886 119.126 111.062 119.126 110.142V107.364C118.899 107.511 118.586 107.648 118.188 107.773C117.802 107.886 117.365 107.994 116.876 108.097C116.387 108.187 115.899 108.273 115.41 108.352C114.921 108.42 114.478 108.483 114.08 108.54C113.228 108.665 112.484 108.864 111.848 109.136C111.211 109.409 110.717 109.778 110.365 110.244C110.012 110.699 109.836 111.267 109.836 111.949C109.836 112.938 110.194 113.693 110.91 114.216C111.637 114.727 112.558 114.983 113.671 114.983ZM135.391 104.364V119.5H128.13V93.3182H135.05V97.9375H135.357C135.937 96.4148 136.908 95.2102 138.272 94.3239C139.635 93.4261 141.289 92.9773 143.232 92.9773C145.05 92.9773 146.635 93.375 147.988 94.1705C149.34 94.9659 150.391 96.1023 151.141 97.5795C151.891 99.0455 152.266 100.795 152.266 102.83V119.5H145.005V104.125C145.016 102.523 144.607 101.273 143.777 100.375C142.948 99.4659 141.806 99.0114 140.351 99.0114C139.374 99.0114 138.51 99.2216 137.76 99.642C137.022 100.062 136.442 100.676 136.022 101.483C135.613 102.278 135.402 103.239 135.391 104.364ZM165.945 129.864C163.592 129.864 161.575 129.54 159.893 128.892C158.223 128.256 156.893 127.386 155.905 126.284C154.916 125.182 154.274 123.943 153.979 122.568L160.695 121.665C160.899 122.188 161.223 122.676 161.666 123.131C162.109 123.585 162.695 123.949 163.422 124.222C164.16 124.506 165.058 124.648 166.115 124.648C167.695 124.648 168.996 124.261 170.018 123.489C171.052 122.727 171.57 121.449 171.57 119.653V114.864H171.263C170.945 115.591 170.467 116.278 169.831 116.926C169.195 117.574 168.376 118.102 167.376 118.511C166.376 118.92 165.183 119.125 163.797 119.125C161.831 119.125 160.041 118.67 158.427 117.761C156.825 116.841 155.547 115.437 154.592 113.551C153.649 111.653 153.177 109.256 153.177 106.358C153.177 103.392 153.66 100.915 154.626 98.9261C155.592 96.9375 156.876 95.4489 158.479 94.4602C160.092 93.4716 161.859 92.9773 163.78 92.9773C165.246 92.9773 166.473 93.2273 167.462 93.7273C168.45 94.2159 169.246 94.8295 169.848 95.5682C170.462 96.2955 170.933 97.0114 171.263 97.7159H171.535V93.3182H178.746V119.756C178.746 121.983 178.2 123.847 177.109 125.347C176.018 126.847 174.507 127.972 172.575 128.722C170.655 129.483 168.445 129.864 165.945 129.864ZM166.098 113.67C167.268 113.67 168.257 113.381 169.064 112.801C169.882 112.21 170.507 111.369 170.939 110.278C171.382 109.176 171.604 107.858 171.604 106.324C171.604 104.79 171.388 103.46 170.956 102.335C170.524 101.199 169.899 100.318 169.081 99.6932C168.263 99.0682 167.268 98.7557 166.098 98.7557C164.905 98.7557 163.899 99.0795 163.081 99.7273C162.263 100.364 161.643 101.25 161.223 102.386C160.802 103.523 160.592 104.835 160.592 106.324C160.592 107.835 160.802 109.142 161.223 110.244C161.655 111.335 162.274 112.182 163.081 112.784C163.899 113.375 164.905 113.67 166.098 113.67ZM188.15 119.994C186.48 119.994 184.991 119.705 183.684 119.125C182.377 118.534 181.343 117.665 180.582 116.517C179.832 115.358 179.457 113.915 179.457 112.188C179.457 110.733 179.724 109.511 180.258 108.523C180.792 107.534 181.519 106.739 182.44 106.136C183.36 105.534 184.406 105.08 185.576 104.773C186.758 104.466 187.997 104.25 189.292 104.125C190.815 103.966 192.042 103.818 192.974 103.682C193.906 103.534 194.582 103.318 195.002 103.034C195.423 102.75 195.633 102.33 195.633 101.773V101.67C195.633 100.591 195.292 99.7557 194.61 99.1648C193.94 98.5739 192.985 98.2784 191.747 98.2784C190.44 98.2784 189.4 98.5682 188.627 99.1477C187.855 99.7159 187.343 100.432 187.093 101.295L180.377 100.75C180.718 99.1591 181.389 97.7841 182.389 96.625C183.389 95.4545 184.678 94.5568 186.258 93.9318C187.849 93.2955 189.69 92.9773 191.781 92.9773C193.235 92.9773 194.627 93.1477 195.957 93.4886C197.298 93.8295 198.485 94.358 199.519 95.0739C200.565 95.7898 201.389 96.7102 201.991 97.8352C202.593 98.9489 202.894 100.284 202.894 101.841V119.5H196.008V115.869H195.803C195.383 116.688 194.82 117.409 194.116 118.034C193.411 118.648 192.565 119.131 191.576 119.483C190.587 119.824 189.445 119.994 188.15 119.994ZM190.23 114.983C191.298 114.983 192.241 114.773 193.059 114.352C193.877 113.92 194.519 113.341 194.985 112.614C195.451 111.886 195.684 111.062 195.684 110.142V107.364C195.457 107.511 195.144 107.648 194.747 107.773C194.36 107.886 193.923 107.994 193.434 108.097C192.945 108.187 192.457 108.273 191.968 108.352C191.48 108.42 191.036 108.483 190.639 108.54C189.786 108.665 189.042 108.864 188.406 109.136C187.769 109.409 187.275 109.778 186.923 110.244C186.57 110.699 186.394 111.267 186.394 111.949C186.394 112.938 186.752 113.693 187.468 114.216C188.195 114.727 189.116 114.983 190.23 114.983Z" fill="white"/>
<path d="M49 137.5H210.003" stroke="white" stroke-width="3"/>
</svg>
